<svg width="530" height="107" viewBox="0 0 530 107" fill="none" xmlns="http://www.w3.org/2000/svg">
<path d="M49.4319 89.3422C43.0841 89.3422 36.9389 87.8565 30.9963 84.8852C25.1887 81.9139 20.6642 77.9296 17.4227 72.9324L18.6383 67.0573V106.309H0V2.22849H16.2072L18.8409 23.703L16.815 17.8279C20.8668 12.6956 25.999 8.44125 32.2118 5.06475C38.4246 1.68825 45.3801 0 53.0786 0C60.912 0 67.9352 1.89084 74.1479 5.67252C80.4957 9.4542 85.493 14.7215 89.1396 21.4745C92.7862 28.2275 94.6095 36.1285 94.6095 45.1776C94.6095 54.2266 92.6511 62.0601 88.7344 68.678C84.8177 75.2959 79.4153 80.4282 72.5272 84.0748C65.7742 87.5864 58.0758 89.3422 49.4319 89.3422ZM45.7853 74.3505C51.1877 74.3505 56.1174 73.135 60.5744 70.7039C65.1664 68.1377 68.8131 64.6937 71.5143 60.3718C74.2155 55.9148 75.566 50.9176 75.566 45.3801C75.566 39.7076 74.283 34.7104 71.7168 30.3885C69.1507 25.9315 65.7067 22.42 61.3848 19.8538C57.1979 17.2877 52.4708 16.0046 47.2035 16.0046C42.3413 16.0046 37.9519 16.95 34.0351 18.8409C30.1184 20.7317 26.8769 23.3654 24.3108 26.7419C21.7447 29.9833 19.9213 33.765 18.8409 38.0869V52.0656C19.5162 56.3875 21.1369 60.2367 23.703 63.6132C26.2692 66.9897 29.4431 69.6234 33.2248 71.5142C37.1415 73.4051 41.3284 74.3505 45.7853 74.3505Z" fill="url(#paint0_linear_27_8)"/>
<path d="M151.544 80.0483C147.762 83.0197 143.237 85.3832 137.97 87.139C132.703 88.8948 127.435 89.7727 122.168 89.7727C112.984 89.7727 104.948 87.9494 98.0599 84.3027C91.1718 80.6561 85.7694 75.5914 81.8527 69.1085C78.071 62.4906 76.1802 54.7246 76.1802 45.8106C76.1802 36.8967 78.2061 29.1307 82.2579 22.5128C86.4447 15.8949 91.8471 10.8301 98.4651 7.31856C105.218 3.67194 112.444 1.84863 120.142 1.84863C126.895 1.84863 132.905 2.79405 138.173 4.68489C143.575 6.57573 148.167 9.14187 151.949 12.3833L142.63 24.5387C140.199 22.6479 137.227 20.9596 133.716 19.474C130.204 17.9883 126.22 17.2455 121.763 17.2455C116.901 17.2455 112.376 18.5285 108.189 21.0947C104.138 23.5258 100.896 26.9023 98.4651 31.2242C96.1691 35.5461 95.021 40.4082 95.021 45.8106C95.021 50.9429 96.2366 55.7376 98.6677 60.1945C101.099 64.5164 104.475 67.9605 108.797 70.5266C113.119 72.9577 118.049 74.1732 123.586 74.1732C127.233 74.1732 130.542 73.633 133.513 72.5525C136.62 71.472 139.388 69.9864 141.819 68.0955L151.544 80.0483Z" fill="url(#paint1_linear_27_8)"/>
<path d="M221.474 21.6262C226.573 21.6262 231.105 22.7601 235.071 25.028C239.037 27.215 242.112 30.4953 244.297 34.8692C246.564 39.162 247.697 44.3458 247.697 50.4206V89.9065H230.701V52.729C230.701 47.3832 229.365 43.2928 226.694 40.4579C224.023 37.5421 220.381 36.0841 215.768 36.0841C211.074 36.0841 207.351 37.5421 204.599 40.4579C201.929 43.2928 200.593 47.3832 200.593 52.729V89.9065H183.597V0H200.593V30.9813C202.778 28.0654 205.692 25.7975 209.334 24.1776C212.976 22.4766 217.023 21.6262 221.474 21.6262Z" fill="url(#paint2_linear_27_8)"/>
<path d="M221.474 21.6262C226.573 21.6262 231.105 22.7601 235.071 25.028C239.037 27.215 242.112 30.4953 244.297 34.8692C246.564 39.162 247.697 44.3458 247.697 50.4206V89.9065H230.701V52.729C230.701 47.3832 229.365 43.2928 226.694 40.4579C224.023 37.5421 220.381 36.0841 215.768 36.0841C211.074 36.0841 207.351 37.5421 204.599 40.4579C201.929 43.2928 200.593 47.3832 200.593 52.729V89.9065H183.597V0H200.593V30.9813C202.778 28.0654 205.692 25.7975 209.334 24.1776C212.976 22.4766 217.023 21.6262 221.474 21.6262Z" fill="white" fill-opacity="0.25"/>
<path d="M319.096 54.7944C319.096 57.2243 318.934 59.4112 318.611 61.3551H269.443C269.848 66.215 271.548 70.0218 274.542 72.7757C277.537 75.5296 281.219 76.9065 285.59 76.9065C291.902 76.9065 296.394 74.1931 299.065 68.7663H317.397C315.454 75.2461 311.731 80.5919 306.228 84.8037C300.724 88.9346 293.966 91 285.954 91C279.479 91 273.652 89.5826 268.472 86.7477C263.373 83.8318 259.367 79.7414 256.454 74.4766C253.621 69.2118 252.205 63.1371 252.205 56.2523C252.205 49.2866 253.621 43.1713 256.454 37.9065C259.286 32.6417 263.252 28.5919 268.351 25.757C273.45 22.9221 279.317 21.5047 285.954 21.5047C292.348 21.5047 298.053 22.8816 303.071 25.6355C308.17 28.3894 312.095 32.3178 314.847 37.4206C317.68 42.4424 319.096 48.2336 319.096 54.7944ZM301.493 49.9346C301.412 45.5607 299.834 42.0779 296.759 39.486C293.683 36.8131 289.92 35.4766 285.468 35.4766C281.26 35.4766 277.699 36.7726 274.785 39.3645C271.952 41.8754 270.212 45.3988 269.565 49.9346H301.493Z" fill="url(#paint3_linear_27_8)"/>
<path d="M319.096 54.7944C319.096 57.2243 318.934 59.4112 318.611 61.3551H269.443C269.848 66.215 271.548 70.0218 274.542 72.7757C277.537 75.5296 281.219 76.9065 285.59 76.9065C291.902 76.9065 296.394 74.1931 299.065 68.7663H317.397C315.454 75.2461 311.731 80.5919 306.228 84.8037C300.724 88.9346 293.966 91 285.954 91C279.479 91 273.652 89.5826 268.472 86.7477C263.373 83.8318 259.367 79.7414 256.454 74.4766C253.621 69.2118 252.205 63.1371 252.205 56.2523C252.205 49.2866 253.621 43.1713 256.454 37.9065C259.286 32.6417 263.252 28.5919 268.351 25.757C273.45 22.9221 279.317 21.5047 285.954 21.5047C292.348 21.5047 298.053 22.8816 303.071 25.6355C308.17 28.3894 312.095 32.3178 314.847 37.4206C317.68 42.4424 319.096 48.2336 319.096 54.7944ZM301.493 49.9346C301.412 45.5607 299.834 42.0779 296.759 39.486C293.683 36.8131 289.92 35.4766 285.468 35.4766C281.26 35.4766 277.699 36.7726 274.785 39.3645C271.952 41.8754 270.212 45.3988 269.565 49.9346H301.493Z" fill="white" fill-opacity="0.25"/>
<path d="M319.847 56.0093C319.847 49.2056 321.183 43.1713 323.854 37.9065C326.605 32.6417 330.288 28.5919 334.901 25.757C339.595 22.9221 344.815 21.5047 350.562 21.5047C355.58 21.5047 359.95 22.5171 363.673 24.5421C367.477 26.567 370.512 29.1184 372.778 32.1963V22.5981H389.895V89.9065H372.778V80.0654C370.593 83.2243 367.558 85.8567 363.673 87.9626C359.869 89.9875 355.458 91 350.44 91C344.775 91 339.595 89.5421 334.901 86.6262C330.288 83.7103 326.605 79.6199 323.854 74.3551C321.183 69.0093 319.847 62.8941 319.847 56.0093ZM372.778 56.2523C372.778 52.1215 371.969 48.5981 370.35 45.6822C368.731 42.6854 366.546 40.4174 363.794 38.8785C361.043 37.2586 358.089 36.4486 354.932 36.4486C351.776 36.4486 348.862 37.2181 346.191 38.757C343.52 40.2959 341.335 42.5639 339.636 45.5607C338.017 48.4766 337.208 51.9595 337.208 56.0093C337.208 60.0592 338.017 63.6231 339.636 66.7009C341.335 69.6978 343.52 72.0062 346.191 73.6262C348.943 75.2461 351.857 76.0561 354.932 76.0561C358.089 76.0561 361.043 75.2866 363.794 73.7477C366.546 72.1277 368.731 69.8598 370.35 66.9439C371.969 63.947 372.778 60.3832 372.778 56.2523Z" fill="url(#paint4_linear_27_8)"/>
<path d="M319.847 56.0093C319.847 49.2056 321.183 43.1713 323.854 37.9065C326.605 32.6417 330.288 28.5919 334.901 25.757C339.595 22.9221 344.815 21.5047 350.562 21.5047C355.58 21.5047 359.95 22.5171 363.673 24.5421C367.477 26.567 370.512 29.1184 372.778 32.1963V22.5981H389.895V89.9065H372.778V80.0654C370.593 83.2243 367.558 85.8567 363.673 87.9626C359.869 89.9875 355.458 91 350.44 91C344.775 91 339.595 89.5421 334.901 86.6262C330.288 83.7103 326.605 79.6199 323.854 74.3551C321.183 69.0093 319.847 62.8941 319.847 56.0093ZM372.778 56.2523C372.778 52.1215 371.969 48.5981 370.35 45.6822C368.731 42.6854 366.546 40.4174 363.794 38.8785C361.043 37.2586 358.089 36.4486 354.932 36.4486C351.776 36.4486 348.862 37.2181 346.191 38.757C343.52 40.2959 341.335 42.5639 339.636 45.5607C338.017 48.4766 337.208 51.9595 337.208 56.0093C337.208 60.0592 338.017 63.6231 339.636 66.7009C341.335 69.6978 343.52 72.0062 346.191 73.6262C348.943 75.2461 351.857 76.0561 354.932 76.0561C358.089 76.0561 361.043 75.2866 363.794 73.7477C366.546 72.1277 368.731 69.8598 370.35 66.9439C371.969 63.947 372.778 60.3832 372.778 56.2523Z" fill="white" fill-opacity="0.25"/>
<path d="M416.207 0V89.9065H399.211V0H416.207Z" fill="url(#paint5_linear_27_8)"/>
<path d="M416.207 0V89.9065H399.211V0H416.207Z" fill="white" fill-opacity="0.25"/>
<path d="M445.504 36.5701V69.1308C445.504 71.3988 446.03 73.0592 447.082 74.1122C448.215 75.0841 450.076 75.5701 452.666 75.5701H460.557V89.9065H449.874C435.549 89.9065 428.386 82.9408 428.386 69.0093V36.5701H420.374V22.5981H428.386V5.95327H445.504V22.5981H460.557V36.5701H445.504Z" fill="url(#paint6_linear_27_8)"/>
<path d="M445.504 36.5701V69.1308C445.504 71.3988 446.03 73.0592 447.082 74.1122C448.215 75.0841 450.076 75.5701 452.666 75.5701H460.557V89.9065H449.874C435.549 89.9065 428.386 82.9408 428.386 69.0093V36.5701H420.374V22.5981H428.386V5.95327H445.504V22.5981H460.557V36.5701H445.504Z" fill="white" fill-opacity="0.25"/>
<path d="M503.375 21.6262C508.473 21.6262 513.006 22.7601 516.971 25.028C520.937 27.215 524.013 30.4953 526.198 34.8692C528.464 39.162 529.597 44.3458 529.597 50.4206V89.9065H512.601V52.729C512.601 47.3832 511.266 43.2928 508.595 40.4579C505.924 37.5421 502.282 36.0841 497.669 36.0841C492.975 36.0841 489.252 37.5421 486.5 40.4579C483.829 43.2928 482.494 47.3832 482.494 52.729V89.9065H465.498V0H482.494V30.9813C484.679 28.0654 487.593 25.7975 491.235 24.1776C494.877 22.4766 498.923 21.6262 503.375 21.6262Z" fill="url(#paint7_linear_27_8)"/>
<path d="M503.375 21.6262C508.473 21.6262 513.006 22.7601 516.971 25.028C520.937 27.215 524.013 30.4953 526.198 34.8692C528.464 39.162 529.597 44.3458 529.597 50.4206V89.9065H512.601V52.729C512.601 47.3832 511.266 43.2928 508.595 40.4579C505.924 37.5421 502.282 36.0841 497.669 36.0841C492.975 36.0841 489.252 37.5421 486.5 40.4579C483.829 43.2928 482.494 47.3832 482.494 52.729V89.9065H465.498V0H482.494V30.9813C484.679 28.0654 487.593 25.7975 491.235 24.1776C494.877 22.4766 498.923 21.6262 503.375 21.6262Z" fill="white" fill-opacity="0.25"/>
<defs>
<linearGradient id="paint0_linear_27_8" x1="8.70504" y1="13.4294" x2="147.048" y2="103.71" gradientUnits="userSpaceOnUse">
<stop/>
<stop offset="1" stop-color="#777777"/>
</linearGradient>
<linearGradient id="paint1_linear_27_8" x1="8.70504" y1="13.4294" x2="147.048" y2="103.71" gradientUnits="userSpaceOnUse">
<stop/>
<stop offset="1" stop-color="#777777"/>
</linearGradient>
<linearGradient id="paint2_linear_27_8" x1="187.097" y1="40.5" x2="520.823" y2="53.8396" gradientUnits="userSpaceOnUse">
<stop stop-color="#777777"/>
<stop offset="1" stop-color="#555555"/>
</linearGradient>
<linearGradient id="paint3_linear_27_8" x1="187.097" y1="40.5" x2="520.823" y2="53.8396" gradientUnits="userSpaceOnUse">
<stop stop-color="#777777"/>
<stop offset="1" stop-color="#555555"/>
</linearGradient>
<linearGradient id="paint4_linear_27_8" x1="187.097" y1="40.5" x2="520.823" y2="53.8396" gradientUnits="userSpaceOnUse">
<stop stop-color="#777777"/>
<stop offset="1" stop-color="#555555"/>
</linearGradient>
<linearGradient id="paint5_linear_27_8" x1="187.097" y1="40.5" x2="520.823" y2="53.8396" gradientUnits="userSpaceOnUse">
<stop stop-color="#777777"/>
<stop offset="1" stop-color="#555555"/>
</linearGradient>
<linearGradient id="paint6_linear_27_8" x1="187.097" y1="40.5" x2="520.823" y2="53.8396" gradientUnits="userSpaceOnUse">
<stop stop-color="#777777"/>
<stop offset="1" stop-color="#555555"/>
</linearGradient>
<linearGradient id="paint7_linear_27_8" x1="187.097" y1="40.5" x2="520.823" y2="53.8396" gradientUnits="userSpaceOnUse">
<stop stop-color="#777777"/>
<stop offset="1" stop-color="#555555"/>
</linearGradient>
</defs>
</svg>
