<svg width="220" height="220" viewBox="0 0 220 220" fill="none" xmlns="http://www.w3.org/2000/svg">
<circle cx="110" cy="110" r="110" fill="#EDECEC"/>
<path d="M85.8348 146.321C79.487 146.321 73.3418 144.835 67.3992 141.864C61.5916 138.892 57.0671 134.908 53.8256 129.911L55.0412 124.036V163.287H36.4029V59.2069H52.6101L55.2438 80.6814L53.2179 74.8063C57.2697 69.6741 62.4019 65.4197 68.6147 62.0432C74.8275 58.6667 81.783 56.9784 89.4815 56.9784C97.3149 56.9784 104.338 58.8693 110.551 62.6509C116.899 66.4326 121.896 71.7 125.542 78.453C129.189 85.206 131.012 93.107 131.012 102.156C131.012 111.205 129.054 119.038 125.137 125.656C121.221 132.274 115.818 137.407 108.93 141.053C102.177 144.565 94.4787 146.321 85.8348 146.321ZM82.1882 131.329C87.5906 131.329 92.5203 130.113 96.9773 127.682C101.569 125.116 105.216 121.672 107.917 117.35C110.618 112.893 111.969 107.896 111.969 102.359C111.969 96.6861 110.686 91.6888 108.12 87.3669C105.554 82.9099 102.11 79.3984 97.7876 76.8322C93.6008 74.2661 88.8737 72.983 83.6063 72.983C78.7442 72.983 74.3547 73.9284 70.438 75.8193C66.5213 77.7101 63.2798 80.3438 60.7137 83.7203C58.1475 86.9617 56.3242 90.7434 55.2438 95.0653V109.044C55.9191 113.366 57.5398 117.215 60.1059 120.592C62.6721 123.968 65.846 126.602 69.6276 128.493C73.5444 130.384 77.7312 131.329 82.1882 131.329Z" fill="url(#paint0_linear_27_9)"/>
<path d="M187.947 137.027C184.165 139.998 179.64 142.362 174.373 144.117C169.106 145.873 163.838 146.751 158.571 146.751C149.387 146.751 141.351 144.928 134.463 141.281C127.575 137.635 122.172 132.57 118.256 126.087C114.474 119.469 112.583 111.703 112.583 102.789C112.583 93.8751 114.609 86.1092 118.661 79.4912C122.848 72.8733 128.25 67.8085 134.868 64.297C141.621 60.6504 148.847 58.8271 156.545 58.8271C163.298 58.8271 169.308 59.7725 174.576 61.6633C179.978 63.5542 184.57 66.1203 188.352 69.3617L179.033 81.5171C176.602 79.6263 173.63 77.938 170.119 76.4524C166.607 74.9667 162.623 74.2239 158.166 74.2239C153.304 74.2239 148.779 75.507 144.592 78.0731C140.54 80.5042 137.299 83.8807 134.868 88.2026C132.572 92.5245 131.424 97.3867 131.424 102.789C131.424 107.921 132.639 112.716 135.071 117.173C137.502 121.495 140.878 124.939 145.2 127.505C149.522 129.936 154.452 131.152 159.989 131.152C163.636 131.152 166.945 130.611 169.916 129.531C173.022 128.45 175.791 126.965 178.222 125.074L187.947 137.027Z" fill="url(#paint1_linear_27_9)"/>
<path d="M135.452 157.46V163.287H131.729V149.474H135.317V154.897H135.425C135.659 154.236 136.048 153.721 136.592 153.353C137.136 152.979 137.79 152.793 138.554 152.793C139.287 152.793 139.923 152.959 140.463 153.292C141.007 153.625 141.427 154.083 141.724 154.668C142.025 155.252 142.174 155.922 142.169 156.678V163.287H138.446V157.46C138.451 156.948 138.323 156.545 138.062 156.253C137.806 155.961 137.439 155.814 136.963 155.814C136.661 155.814 136.396 155.882 136.167 156.017C135.942 156.147 135.766 156.336 135.641 156.583C135.519 156.826 135.456 157.118 135.452 157.46Z" fill="url(#paint2_linear_27_9)"/>
<path d="M148.212 163.476C147.105 163.476 146.152 163.265 145.352 162.842C144.556 162.415 143.942 161.804 143.511 161.008C143.083 160.207 142.87 159.25 142.87 158.135C142.87 157.064 143.086 156.129 143.517 155.329C143.949 154.528 144.558 153.906 145.345 153.461C146.132 153.015 147.061 152.793 148.131 152.793C148.913 152.793 149.621 152.914 150.255 153.157C150.889 153.4 151.431 153.753 151.881 154.216C152.33 154.675 152.677 155.232 152.919 155.889C153.162 156.545 153.284 157.285 153.284 158.108V158.971H144.03V156.921H149.857C149.853 156.624 149.776 156.363 149.628 156.138C149.484 155.909 149.288 155.731 149.041 155.605C148.798 155.475 148.522 155.41 148.212 155.41C147.91 155.41 147.634 155.475 147.382 155.605C147.13 155.731 146.928 155.907 146.775 156.131C146.627 156.356 146.548 156.619 146.539 156.921V159.133C146.539 159.465 146.609 159.762 146.748 160.023C146.887 160.284 147.087 160.488 147.348 160.637C147.609 160.785 147.924 160.859 148.293 160.859C148.549 160.859 148.783 160.823 148.994 160.751C149.21 160.68 149.394 160.576 149.547 160.441C149.7 160.302 149.812 160.135 149.884 159.942H153.284C153.167 160.662 152.89 161.287 152.454 161.817C152.018 162.343 151.44 162.752 150.721 163.045C150.006 163.332 149.169 163.476 148.212 163.476Z" fill="url(#paint3_linear_27_9)"/>
<path d="M156.93 163.449C156.269 163.449 155.684 163.341 155.176 163.126C154.673 162.905 154.277 162.573 153.989 162.127C153.701 161.682 153.557 161.116 153.557 160.428C153.557 159.861 153.654 159.378 153.847 158.978C154.041 158.573 154.311 158.242 154.657 157.986C155.003 157.73 155.405 157.534 155.864 157.399C156.327 157.265 156.826 157.177 157.361 157.136C157.941 157.091 158.407 157.037 158.758 156.974C159.113 156.907 159.369 156.815 159.526 156.698C159.684 156.577 159.762 156.417 159.762 156.219V156.192C159.762 155.922 159.659 155.715 159.452 155.572C159.245 155.428 158.98 155.356 158.656 155.356C158.301 155.356 158.011 155.434 157.786 155.592C157.566 155.745 157.433 155.981 157.388 156.3H153.962C154.007 155.671 154.207 155.09 154.562 154.56C154.922 154.025 155.446 153.598 156.134 153.278C156.822 152.955 157.681 152.793 158.71 152.793C159.452 152.793 160.118 152.881 160.707 153.056C161.296 153.227 161.797 153.467 162.211 153.778C162.624 154.083 162.939 154.443 163.155 154.857C163.375 155.266 163.485 155.711 163.485 156.192V163.287H160.005V161.831H159.924C159.718 162.217 159.466 162.53 159.169 162.768C158.877 163.006 158.542 163.18 158.164 163.287C157.791 163.395 157.379 163.449 156.93 163.449ZM158.144 161.102C158.427 161.102 158.692 161.044 158.94 160.927C159.191 160.81 159.396 160.641 159.553 160.421C159.711 160.201 159.789 159.933 159.789 159.618V158.755C159.691 158.796 159.585 158.834 159.472 158.87C159.365 158.906 159.248 158.939 159.122 158.971C159 159.002 158.87 159.032 158.731 159.059C158.596 159.086 158.454 159.11 158.306 159.133C158.018 159.178 157.782 159.252 157.597 159.355C157.418 159.454 157.283 159.578 157.193 159.726C157.107 159.87 157.065 160.032 157.065 160.212C157.065 160.5 157.166 160.72 157.368 160.873C157.57 161.026 157.829 161.102 158.144 161.102Z" fill="url(#paint4_linear_27_9)"/>
<path d="M168.228 149.474V163.287H164.505V149.474H168.228Z" fill="url(#paint5_linear_27_9)"/>
<path d="M175.543 152.928V155.626H168.717V152.928H175.543ZM170.039 150.446H173.762V159.956C173.762 160.099 173.787 160.221 173.837 160.32C173.886 160.414 173.962 160.486 174.066 160.536C174.169 160.581 174.302 160.603 174.464 160.603C174.576 160.603 174.707 160.59 174.855 160.563C175.008 160.536 175.12 160.513 175.192 160.495L175.732 163.112C175.565 163.162 175.327 163.222 175.017 163.294C174.711 163.366 174.347 163.413 173.924 163.436C173.07 163.481 172.353 163.393 171.773 163.173C171.193 162.948 170.757 162.595 170.464 162.114C170.172 161.633 170.03 161.03 170.039 160.306V150.446Z" fill="url(#paint6_linear_27_9)"/>
<path d="M180.248 157.46V163.287H176.525V149.474H180.113V154.897H180.221C180.455 154.236 180.844 153.721 181.388 153.353C181.932 152.979 182.586 152.793 183.351 152.793C184.083 152.793 184.72 152.959 185.259 153.292C185.803 153.625 186.224 154.083 186.521 154.668C186.822 155.252 186.97 155.922 186.966 156.678V163.287H183.243V157.46C183.247 156.948 183.119 156.545 182.858 156.253C182.602 155.961 182.235 155.814 181.759 155.814C181.458 155.814 181.192 155.882 180.963 156.017C180.738 156.147 180.563 156.336 180.437 156.583C180.316 156.826 180.253 157.118 180.248 157.46Z" fill="url(#paint7_linear_27_9)"/>
<defs>
<linearGradient id="paint0_linear_27_9" x1="45.1079" y1="70.4078" x2="183.451" y2="160.688" gradientUnits="userSpaceOnUse">
<stop/>
<stop offset="1" stop-color="#777777"/>
</linearGradient>
<linearGradient id="paint1_linear_27_9" x1="45.1079" y1="70.4078" x2="183.451" y2="160.688" gradientUnits="userSpaceOnUse">
<stop/>
<stop offset="1" stop-color="#777777"/>
</linearGradient>
<linearGradient id="paint2_linear_27_9" x1="134.893" y1="151.243" x2="151.789" y2="181.675" gradientUnits="userSpaceOnUse">
<stop/>
<stop offset="1" stop-color="#777777"/>
</linearGradient>
<linearGradient id="paint3_linear_27_9" x1="134.893" y1="151.243" x2="151.789" y2="181.675" gradientUnits="userSpaceOnUse">
<stop/>
<stop offset="1" stop-color="#777777"/>
</linearGradient>
<linearGradient id="paint4_linear_27_9" x1="134.893" y1="151.243" x2="151.789" y2="181.675" gradientUnits="userSpaceOnUse">
<stop/>
<stop offset="1" stop-color="#777777"/>
</linearGradient>
<linearGradient id="paint5_linear_27_9" x1="134.893" y1="151.243" x2="151.789" y2="181.675" gradientUnits="userSpaceOnUse">
<stop/>
<stop offset="1" stop-color="#777777"/>
</linearGradient>
<linearGradient id="paint6_linear_27_9" x1="134.893" y1="151.243" x2="151.789" y2="181.675" gradientUnits="userSpaceOnUse">
<stop/>
<stop offset="1" stop-color="#777777"/>
</linearGradient>
<linearGradient id="paint7_linear_27_9" x1="134.893" y1="151.243" x2="151.789" y2="181.675" gradientUnits="userSpaceOnUse">
<stop/>
<stop offset="1" stop-color="#777777"/>
</linearGradient>
</defs>
</svg>
